<svg width="24" height="27" viewBox="0 0 24 27" fill="none" xmlns="http://www.w3.org/2000/svg">
    <path fill-rule="evenodd" clip-rule="evenodd" d="M11.3845 21.9231C5.43678 21.9231 0.615234 17.1015 0.615234 11.1538C0.615234 5.20616 5.43678 0.384613 11.3845 0.384613C17.3321 0.384613 22.1537 5.20616 22.1537 11.1538C22.1537 12.4426 21.9268 13.7016 21.489 14.8865C21.3123 15.3647 20.7814 15.6091 20.3032 15.4324C19.825 15.2557 19.5806 14.7248 19.7573 14.2466C20.1197 13.2658 20.3075 12.2234 20.3075 11.1538C20.3075 6.22576 16.3125 2.23077 11.3845 2.23077C6.45639 2.23077 2.46139 6.22576 2.46139 11.1538C2.46139 16.0819 6.45639 20.0769 11.3845 20.0769C13.7819 20.0769 16.0269 19.1283 17.6897 17.4677C18.05 17.1079 18.6337 17.1078 18.9941 17.4676L23.1124 21.5786C24.153 22.6173 24.1545 24.3028 23.1158 25.3433C22.0739 26.3852 20.3874 26.3852 19.3471 25.345L17.501 23.4989C17.1405 23.1384 17.1405 22.5539 17.501 22.1934C17.8615 21.833 18.4459 21.833 18.8064 22.1934L20.6526 24.0396C20.9718 24.3588 21.4894 24.3588 21.8087 24.0396C22.1275 23.7201 22.1271 23.2035 21.8082 22.8852L18.3144 19.3976C16.3957 21.013 13.9612 21.9231 11.3845 21.9231Z" fill="#333333"/>
</svg>
